/* XPM */
static char * player2_xpm[] = {
"8 8 6 1",
" 	c None",
".	c #000000",
"+	c #E7A8A8",
"@	c #6967E7",
"#	c #402A07",
"$	c #E54C34",
"   ..   ",
"   ++   ",
"   +    ",
" @@@@@  ",
" +@@@+  ",
" +###+  ",
"  $ $   ",
"  # #   "};
