/* XPM */
static char * player3_xpm[] = {
"16 16 4 1",
" 	c None",
".	c #6967E7",
"+	c #402A07",
"@	c #E7A8A8",
"     .....      ",
"     ..+@+      ",
"@@@  .@@@@  @@@ ",
"  @   @@@@    @ ",
"  @    @@     @ ",
"  @@@@@@@@@@@@@ ",
"    @@@@@@@@    ",
"    @@@@@@@@    ",
"    @@@@@@@@    ",
"    @@@@@@@@    ",
"     @@@@@@     ",
"      @@@@      ",
"     @@  @@     ",
"    @@@  @@@    ",
"   @@@@  @@@@   ",
"  @@@@@  @@@@@  "};
